<svg width="56" height="55" viewBox="0 0 56 55" fill="none" xmlns="http://www.w3.org/2000/svg">
<path d="M22.4429 34.9479L37.7397 25.2083L22.4429 15.4688V34.9479ZM19.4064 48.125V43.5417H8.521C7.60433 43.5417 6.80225 43.1979 6.11475 42.5104C5.42725 41.8229 5.0835 41.0208 5.0835 40.1042V10.3125C5.0835 9.39583 5.42725 8.59375 6.11475 7.90625C6.80225 7.21875 7.60433 6.875 8.521 6.875H47.4793C48.396 6.875 49.1981 7.21875 49.8856 7.90625C50.5731 8.59375 50.9168 9.39583 50.9168 10.3125V40.1042C50.9168 41.0208 50.5731 41.8229 49.8856 42.5104C49.1981 43.1979 48.396 43.5417 47.4793 43.5417H36.5939V48.125H19.4064ZM8.521 40.1042H47.4793V10.3125H8.521V40.1042Z" fill="#FEFEFE"/>
</svg>
